<?xml version="1.0" encoding="utf-8"?>
<!-- Generator: Adobe Illustrator 24.0.0, SVG Export Plug-In . SVG Version: 6.00 Build 0)  -->
<svg version="1.1" xmlns="http://www.w3.org/2000/svg" xmlns:xlink="http://www.w3.org/1999/xlink" x="0px" y="0px"
	 viewBox="0 0 595.28 292.59" style="enable-background:new 0 0 595.28 292.59;" xml:space="preserve">
<style type="text/css">
	.st0{fill:#FFF200;}
	.st1{fill:#ED1C24;}
	.st2{fill:#1A1A1A;}
	.st3{fill:#D71920;}
</style>
<g id="Layer_1">
	<path class="st0" d="M342.91,45.07c91.08,0,174.66,27.58,240.11,73.55C532.07,50.98,443.57,6.22,342.91,6.22
		S153.76,50.98,102.8,118.62C168.26,72.65,251.84,45.07,342.91,45.07z"/>
	<g>
		<path class="st1" d="M20.47,288.18L148.58,110.1h29.97l5.68,122.56h-29.8l-1.12-26.04h-47.47L48.6,288.18H20.47z M154.19,186.03
			l-0.28-39.6c0.01-1.17,0.19-3.18,0.54-6.03c0.35-2.85,0.9-6.34,1.63-10.47c-2.07,3.96-3.98,7.52-5.72,10.67
			c-1.74,3.15-2.96,5.26-3.65,6.32l-26.5,39.1H154.19z"/>
	</g>
	<g>
		<path class="st1" d="M182.1,232.66l41.62-122.56h27.2l30.02,71.32c0.88,2.01,1.63,4.84,2.26,8.5c0.63,3.66,1.1,7.97,1.43,12.93
			c0.62-3.63,1.39-7.23,2.33-10.8c0.93-3.57,2.31-8.04,4.13-13.39l23.28-68.56h25.03l-41.62,122.56h-25.7l-31.08-72.66
			c-0.88-2.01-1.62-4.84-2.22-8.5c-0.6-3.65-1.07-8.02-1.41-13.1c-0.58,3.51-1.34,7.07-2.28,10.67c-0.95,3.6-2.34,8.13-4.2,13.6
			l-23.76,69.98H182.1z"/>
	</g>
	<g>
		<path class="st2" d="M383.8,156.31h-11.63c-1.08,0-2.02,0.42-2.83,1.26c-0.81,0.84-1.21,1.79-1.21,2.84
			c0,1.16-0.35,1.84-1.05,2.05c-0.7,0.21-1.43-0.1-2.18-0.95c-4.31-2.95-8.99-4.68-14.05-5.21c-5.06-0.53-10.01-0.08-14.86,1.34
			c-1.39,0.41-2.75,0.9-4.08,1.45l-18.46,53.96c1.16,1.97,2.5,3.86,4.05,5.65c3.28,3.79,7.16,6.85,11.63,9.16
			c4.47,2.32,9.42,3.74,14.85,4.27c5.43,0.53,11.06-0.16,16.87-2.05c1.07-0.42,1.45-1.05,1.13-1.9l-4.36-11.69
			c-0.54-0.84-1.19-1.5-1.94-1.97c-0.75-0.47-1.67-0.55-2.74-0.24c-4.42,1.26-8.53,1.08-12.35-0.55c-3.82-1.63-6.92-4.05-9.28-7.27
			c-2.37-3.21-3.85-6.84-4.44-10.9c-0.05-0.35-0.08-0.7-0.11-1.05c-0.32-3.66,0.48-7.13,2.45-10.41c1.4-2.42,3.2-4.45,5.41-6.08
			c2.2-1.63,4.6-2.82,7.18-3.55c2.58-0.74,5.27-0.97,8.07-0.71c2.8,0.26,5.49,1.08,8.07,2.45c0.95,0.5,1.82,1.06,2.66,1.66
			c2.29,1.65,4.16,3.64,5.58,6c1.94,3.21,2.91,7.24,2.91,12.08c0,0.11,0,0.63,0,1.58s-0.03,2.19-0.08,3.71
			c-0.06,1.53-0.08,3.21-0.08,5.06c0,1.84,0,3.71,0,5.61v15.16c0,1.16,0.4,2.11,1.21,2.84c0.81,0.74,1.8,1.11,2.99,1.11h10.66
			c1.18,0,2.18-0.37,2.99-1.11c0.81-0.74,1.21-1.68,1.21-2.84v-62.67v-4c0-1.05-0.4-2-1.21-2.84
			C385.98,156.73,384.98,156.31,383.8,156.31z"/>
		<path class="st2" d="M446.74,191.22c-2.85-1.68-6.22-3-10.09-3.95c-3.87-0.95-8.07-1.79-12.59-2.53
			c-4.74-0.95-7.89-1.79-9.45-2.53c-0.13-0.06-0.22-0.14-0.33-0.21c-1.32-0.75-2.01-1.93-2.01-3.58c0-0.63,0.11-1.34,0.32-2.13
			c0.21-0.79,0.67-1.5,1.37-2.13c0.7-0.63,1.7-1.11,2.99-1.42c1.29-0.32,3.01-0.42,5.17-0.32c2.47,0.11,4.79,0.55,6.94,1.34
			c0.38,0.14,0.72,0.3,1.06,0.45c1.58,0.72,2.75,1.59,3.46,2.63c0.54,0.53,1.1,0.95,1.7,1.26c0.59,0.32,1.21,0.47,1.86,0.47h11.63
			c0.65,0,1.29-0.16,1.94-0.47c0.65-0.32,1.07-0.74,1.29-1.26c0.75-0.95,0.97-2.05,0.65-3.32c-1.28-2.96-3-5.57-5.12-7.87
			c-1.81-1.96-3.92-3.69-6.34-5.17c-5.27-3.21-11.62-4.82-19.05-4.82c-4.74,0-8.91,0.69-12.51,2.05c-3.61,1.37-6.65,3.16-9.12,5.37
			c-2.48,2.21-4.36,4.71-5.65,7.5c-1.29,2.79-1.94,5.61-1.94,8.45c0,4,0.97,7.29,2.91,9.87c0.4,0.54,0.84,1.04,1.28,1.53
			c1.69,1.88,3.68,3.46,5.98,4.71c2.91,1.58,6.03,2.76,9.36,3.55c3.34,0.79,6.35,1.4,9.04,1.82c3.12,0.53,5.7,1.03,7.75,1.5
			c2.04,0.47,3.63,1.03,4.76,1.66c1.13,0.63,1.91,1.34,2.34,2.13c0.43,0.79,0.65,1.71,0.65,2.76c0,2-1.16,3.53-3.47,4.58
			c-2.32,1.05-5.36,1.58-9.12,1.58c-2.37,0-4.79-0.47-7.27-1.42c-2.48-0.95-4.63-2.74-6.46-5.37c-0.86-0.95-1.94-1.42-3.23-1.42
			h-11.46c-1.4,0-2.42,0.47-3.07,1.42c-0.97,1.16-1.13,2.32-0.48,3.48c1.08,3.16,2.61,6,4.6,8.53c1.99,2.53,4.36,4.66,7.1,6.4
			c2.74,1.74,5.76,3.06,9.04,3.95c3.28,0.89,6.7,1.34,10.25,1.34c4.84,0,9.26-0.61,13.24-1.82c3.98-1.21,7.4-2.87,10.25-4.98
			c2.85-2.11,5.06-4.66,6.62-7.66c1.56-3,2.34-6.24,2.34-9.72c0-3.89-0.81-7.16-2.42-9.79
			C451.82,195.07,449.59,192.91,446.74,191.22z"/>
		<path class="st3" d="M474.82,127.47h-11.29c-0.98,0-1.86,0.37-2.62,1.12c-0.76,0.75-1.15,1.71-1.15,2.88v11.2
			c0,0.96,0.38,1.82,1.15,2.56c0.76,0.75,1.64,1.12,2.62,1.12h11.29c1.2,0,2.18-0.37,2.94-1.12c0.76-0.75,1.14-1.6,1.14-2.56v-11.2
			C478.9,128.81,477.54,127.47,474.82,127.47z"/>
		<path class="st2" d="M474.82,155.96h-11.29c-0.98,0-1.86,0.43-2.62,1.28c-0.76,0.86-1.15,1.87-1.15,3.04v15.6v51.95
			c0,1.07,0.38,1.98,1.15,2.72c0.76,0.75,1.64,1.12,2.62,1.12h11.29c1.2,0,2.18-0.37,2.94-1.12c0.76-0.75,1.14-1.65,1.14-2.72V199.8
			c-0.01-0.07-0.01-0.14-0.02-0.21v-10.86c0.01-0.06,0.01-0.12,0.02-0.18v-22.08v-6.18c0-1.17-0.38-2.19-1.14-3.04
			C477,156.38,476.01,155.96,474.82,155.96z"/>
		<path class="st2" d="M560.99,155.94c-0.82-0.85-1.83-1.28-3.03-1.28h-11.78c-1.09,0-2.04,0.43-2.86,1.28
			c-0.82,0.86-1.23,1.82-1.23,2.88c0,1.18-0.36,1.87-1.06,2.08c-0.71,0.21-1.45-0.11-2.21-0.96c-4.36-2.99-9.11-4.75-14.23-5.28
			c-5.13-0.53-10.14-0.08-15.05,1.36c-4.91,1.44-9.43,3.76-13.58,6.96c-4.15,3.2-7.42,7.04-9.82,11.52c-0.94,1.8-1.7,3.6-2.35,5.4
			l-0.01-0.12c0,0-0.63,1.6-1.24,4.16c-0.03,0.11-0.05,0.21-0.07,0.32c-0.18,0.79-0.35,1.66-0.51,2.6
			c-0.02,0.12-0.05,0.25-0.07,0.37v0.1c-0.47,3.12-0.66,6.91,0,10.82v0.34c0.15,1.06,0.36,2.11,0.6,3.15
			c0.27,1.16,0.58,2.3,0.96,3.42c1.58,4.7,4.03,8.96,7.36,12.8c3.33,3.84,7.25,6.94,11.78,9.28c4.52,2.35,9.54,3.79,15.05,4.32
			c5.51,0.53,11.21-0.16,17.1-2.08c1.09-0.43,1.47-1.07,1.14-1.92l-4.42-11.84c-0.55-0.85-1.2-1.52-1.96-2
			c-0.76-0.48-1.69-0.56-2.78-0.24c-4.47,1.28-8.65,1.1-12.52-0.56c-3.87-1.65-7.01-4.11-9.41-7.36c-2.4-3.25-3.9-6.93-4.5-11.04
			c-0.08-0.52-0.13-1.03-0.16-1.54c-0.22-3.54,0.62-6.89,2.53-10.06c1.42-2.45,3.24-4.51,5.48-6.16c2.23-1.65,4.66-2.85,7.28-3.6
			c2.62-0.75,5.34-0.99,8.18-0.72c2.83,0.27,5.56,1.1,8.18,2.48c0.75,0.4,1.44,0.84,2.11,1.3c2.58,1.74,4.67,3.88,6.23,6.46
			c1.96,3.26,2.94,7.34,2.94,12.24c0,0.11,0,0.64,0,1.6c0,0.96-0.03,2.22-0.08,3.76c-0.06,1.55-0.08,3.26-0.08,5.12
			c0,1.87,0,3.76,0,5.68v15.36c0,1.18,0.41,2.14,1.23,2.88c0.82,0.75,1.83,1.12,3.03,1.12h10.8c1.2,0,2.21-0.37,3.03-1.12
			c0.82-0.75,1.23-1.71,1.23-2.88v-64.29v-3.25C562.22,157.76,561.81,156.8,560.99,155.94z"/>
	</g>
</g>
<g id="Layer_2">
</g>
</svg>
