<?xml version="1.0" encoding="utf-8"?>
<!-- Generator: Adobe Illustrator 24.0.1, SVG Export Plug-In . SVG Version: 6.00 Build 0)  -->
<svg version="1.1" id="レイヤー_1" xmlns="http://www.w3.org/2000/svg" xmlns:xlink="http://www.w3.org/1999/xlink" x="0px"
	 y="0px" viewBox="0 0 595.3 292.6" style="enable-background:new 0 0 595.3 292.6;" xml:space="preserve">
<style type="text/css">
	.st0{fill:#FFFFFF;}
</style>
<g id="Layer_1">
	<path class="st0" d="M342.9,45.1c91.1,0,174.7,27.6,240.1,73.6C532.1,51,443.6,6.2,342.9,6.2S153.8,51,102.8,118.6
		C168.3,72.7,251.8,45.1,342.9,45.1z"/>
	<g>
		<path class="st0" d="M20.5,288.2l128.1-178.1h30l5.7,122.6h-29.8l-1.1-26h-47.5l-57.2,81.6H20.5z M154.2,186l-0.3-39.6
			c0-1.2,0.2-3.2,0.5-6c0.4-2.9,0.9-6.3,1.6-10.5c-2.1,4-4,7.5-5.7,10.7s-3,5.3-3.6,6.3L120.2,186L154.2,186L154.2,186z"/>
	</g>
	<g>
		<path class="st0" d="M182.1,232.7l41.6-122.6h27.2l30,71.3c0.9,2,1.6,4.8,2.3,8.5s1.1,8,1.4,12.9c0.6-3.6,1.4-7.2,2.3-10.8
			c0.9-3.6,2.3-8,4.1-13.4l23.3-68.6h25l-41.6,122.6h-25.7L241,160c-0.9-2-1.6-4.8-2.2-8.5c-0.6-3.6-1.1-8-1.4-13.1
			c-0.6,3.5-1.3,7.1-2.3,10.7c-0.9,3.6-2.3,8.1-4.2,13.6l-23.8,70L182.1,232.7L182.1,232.7z"/>
	</g>
	<g>
		<path class="st0" d="M383.8,156.3h-11.6c-1.1,0-2,0.4-2.8,1.3s-1.2,1.8-1.2,2.8c0,1.2-0.4,1.8-1,2.1c-0.7,0.2-1.4-0.1-2.2-0.9
			c-4.3-2.9-9-4.7-14-5.2c-5.1-0.5-10-0.1-14.9,1.3c-1.4,0.4-2.8,0.9-4.1,1.4l-18.5,54c1.2,2,2.5,3.9,4,5.6
			c3.3,3.8,7.2,6.9,11.6,9.2c4.5,2.3,9.4,3.7,14.9,4.3s11.1-0.2,16.9-2.1c1.1-0.4,1.5-1.1,1.1-1.9l-4.4-11.7c-0.5-0.8-1.2-1.5-1.9-2
			s-1.7-0.6-2.7-0.2c-4.4,1.3-8.5,1.1-12.4-0.6s-6.9-4.1-9.3-7.3c-2.4-3.2-3.9-6.8-4.4-10.9c0-0.4-0.1-0.7-0.1-1.1
			c-0.3-3.7,0.5-7.1,2.5-10.4c1.4-2.4,3.2-4.4,5.4-6.1c2.2-1.6,4.6-2.8,7.2-3.6c2.6-0.7,5.3-1,8.1-0.7c2.8,0.3,5.5,1.1,8.1,2.4
			c1,0.5,1.8,1.1,2.7,1.7c2.3,1.6,4.2,3.6,5.6,6c1.9,3.2,2.9,7.2,2.9,12.1c0,0.1,0,0.6,0,1.6s0,2.2-0.1,3.7
			c-0.1,1.5-0.1,3.2-0.1,5.1c0,1.8,0,3.7,0,5.6v15.2c0,1.2,0.4,2.1,1.2,2.8c0.8,0.7,1.8,1.1,3,1.1h10.7c1.2,0,2.2-0.4,3-1.1
			s1.2-1.7,1.2-2.8v-62.7v-4c0-1.1-0.4-2-1.2-2.8C386,156.7,385,156.3,383.8,156.3z"/>
		<path class="st0" d="M446.7,191.2c-2.9-1.7-6.2-3-10.1-3.9s-8.1-1.8-12.6-2.5c-4.7-0.9-7.9-1.8-9.5-2.5c-0.1-0.1-0.2-0.1-0.3-0.2
			c-1.3-0.8-2-1.9-2-3.6c0-0.6,0.1-1.3,0.3-2.1c0.2-0.8,0.7-1.5,1.4-2.1c0.7-0.6,1.7-1.1,3-1.4c1.3-0.3,3-0.4,5.2-0.3
			c2.5,0.1,4.8,0.6,6.9,1.3c0.4,0.1,0.7,0.3,1.1,0.4c1.6,0.7,2.8,1.6,3.5,2.6c0.5,0.5,1.1,0.9,1.7,1.3c0.6,0.3,1.2,0.5,1.9,0.5h11.6
			c0.6,0,1.3-0.2,1.9-0.5c0.6-0.3,1.1-0.7,1.3-1.3c0.8-0.9,1-2.1,0.6-3.3c-1.3-3-3-5.6-5.1-7.9c-1.8-2-3.9-3.7-6.3-5.2
			c-5.3-3.2-11.6-4.8-19-4.8c-4.7,0-8.9,0.7-12.5,2.1c-3.6,1.4-6.6,3.2-9.1,5.4c-2.5,2.2-4.4,4.7-5.6,7.5s-1.9,5.6-1.9,8.4
			c0,4,1,7.3,2.9,9.9c0.4,0.5,0.8,1,1.3,1.5c1.7,1.9,3.7,3.5,6,4.7c2.9,1.6,6,2.8,9.4,3.6c3.3,0.8,6.4,1.4,9,1.8
			c3.1,0.5,5.7,1,7.8,1.5c2,0.5,3.6,1,4.8,1.7s1.9,1.3,2.3,2.1c0.4,0.8,0.6,1.7,0.6,2.8c0,2-1.2,3.5-3.5,4.6
			c-2.3,1.1-5.4,1.6-9.1,1.6c-2.4,0-4.8-0.5-7.3-1.4c-2.5-0.9-4.6-2.7-6.5-5.4c-0.9-0.9-1.9-1.4-3.2-1.4H396c-1.4,0-2.4,0.5-3.1,1.4
			c-1,1.2-1.1,2.3-0.5,3.5c1.1,3.2,2.6,6,4.6,8.5c2,2.5,4.4,4.7,7.1,6.4c2.7,1.7,5.8,3.1,9,3.9s6.7,1.3,10.2,1.3
			c4.8,0,9.3-0.6,13.2-1.8c4-1.2,7.4-2.9,10.2-5s5.1-4.7,6.6-7.7s2.3-6.2,2.3-9.7c0-3.9-0.8-7.2-2.4-9.8
			C451.8,195.1,449.6,192.9,446.7,191.2z"/>
		<path class="st0" d="M474.8,127.5h-11.3c-1,0-1.9,0.4-2.6,1.1c-0.8,0.8-1.1,1.7-1.1,2.9v11.2c0,1,0.4,1.8,1.1,2.6
			c0.8,0.8,1.6,1.1,2.6,1.1h11.3c1.2,0,2.2-0.4,2.9-1.1s1.1-1.6,1.1-2.6v-11.2C478.9,128.8,477.5,127.5,474.8,127.5z"/>
		<path class="st0" d="M474.8,156h-11.3c-1,0-1.9,0.4-2.6,1.3c-0.8,0.9-1.1,1.9-1.1,3v15.6v51.9c0,1.1,0.4,2,1.1,2.7
			c0.8,0.8,1.6,1.1,2.6,1.1h11.3c1.2,0,2.2-0.4,2.9-1.1s1.1-1.6,1.1-2.7v-28c0-0.1,0-0.1,0-0.2v-10.9c0-0.1,0-0.1,0-0.2v-22.1v-6.2
			c0-1.2-0.4-2.2-1.1-3C477,156.4,476,156,474.8,156z"/>
		<path class="st0" d="M561,155.9c-0.8-0.9-1.8-1.3-3-1.3h-11.8c-1.1,0-2,0.4-2.9,1.3c-0.8,0.9-1.2,1.8-1.2,2.9
			c0,1.2-0.4,1.9-1.1,2.1c-0.7,0.2-1.5-0.1-2.2-1c-4.4-3-9.1-4.8-14.2-5.3c-5.1-0.5-10.1-0.1-15,1.4c-4.9,1.4-9.4,3.8-13.6,7
			c-4.1,3.2-7.4,7-9.8,11.5c-0.9,1.8-1.7,3.6-2.4,5.4l0-0.1c0,0-0.6,1.6-1.2,4.2c0,0.1,0,0.2-0.1,0.3c-0.2,0.8-0.4,1.7-0.5,2.6
			c0,0.1,0,0.2-0.1,0.4v0.1c-0.5,3.1-0.7,6.9,0,10.8v0.3c0.1,1.1,0.4,2.1,0.6,3.1c0.3,1.2,0.6,2.3,1,3.4c1.6,4.7,4,9,7.4,12.8
			s7.2,6.9,11.8,9.3c4.5,2.4,9.5,3.8,15.1,4.3c5.5,0.5,11.2-0.2,17.1-2.1c1.1-0.4,1.5-1.1,1.1-1.9l-4.4-11.8c-0.5-0.9-1.2-1.5-2-2
			s-1.7-0.6-2.8-0.2c-4.5,1.3-8.7,1.1-12.5-0.6c-3.9-1.6-7-4.1-9.4-7.4s-3.9-6.9-4.5-11c-0.1-0.5-0.1-1-0.2-1.5
			c-0.2-3.5,0.6-6.9,2.5-10.1c1.4-2.4,3.2-4.5,5.5-6.2c2.2-1.6,4.7-2.9,7.3-3.6c2.6-0.8,5.3-1,8.2-0.7c2.8,0.3,5.6,1.1,8.2,2.5
			c0.8,0.4,1.4,0.8,2.1,1.3c2.6,1.7,4.7,3.9,6.2,6.5c2,3.3,2.9,7.3,2.9,12.2c0,0.1,0,0.6,0,1.6s0,2.2-0.1,3.8
			c-0.1,1.6-0.1,3.3-0.1,5.1c0,1.9,0,3.8,0,5.7v15.4c0,1.2,0.4,2.1,1.2,2.9c0.8,0.8,1.8,1.1,3,1.1H558c1.2,0,2.2-0.4,3-1.1
			s1.2-1.7,1.2-2.9v-64.3v-3.2C562.2,157.8,561.8,156.8,561,155.9z"/>
	</g>
</g>
<g id="Layer_2">
</g>
</svg>
