<?xml version="1.0" encoding="utf-8"?>
<!-- Generator: Adobe Illustrator 24.0.0, SVG Export Plug-In . SVG Version: 6.00 Build 0)  -->
<svg version="1.1" id="Layer_1" xmlns="http://www.w3.org/2000/svg" xmlns:xlink="http://www.w3.org/1999/xlink" x="0px" y="0px"
	 viewBox="0 0 595.28 274.22" style="enable-background:new 0 0 595.28 274.22;" xml:space="preserve">
<style type="text/css">
	.st0{fill:#EB1F3C;}
	.st1{fill:#231F20;}
</style>
<g>
	<polygon class="st0" points="122.93,102.24 122.93,195.78 39.06,201.88 39.06,231.49 122.93,231.49 191.08,231.49 191.08,190.82 
		191.08,86.76 	"/>
	<path class="st1" d="M332.96,102.42v129.06h37.9v-26.1l37.9,1.13v24.98h37.9V116.65L332.96,102.42z M370.86,167.88v-22.62
		l37.9,3.72v21.64L370.86,167.88z"/>
	<path class="st1" d="M452.66,118.12v113.36h29.31V208.6l29.31,1.03v21.86h25.95V128.83L452.66,118.12z M481.97,175.72v-19.83
		l29.31,3.4v18.94L481.97,175.72z"/>
	<path class="st1" d="M308.79,165.82l17.04-0.99v-62.57L201.56,86.76v144.73h124.27v-61.3L308.79,165.82z M284.41,190.75
		l-41.42-1.57v-6.33l41.42,1.8V190.75z M284.41,143.92l-41.42-3.37v-6.33l41.42,3.6V143.92z"/>
</g>
</svg>
