<?xml version="1.0" encoding="utf-8"?>
<!-- Generator: Adobe Illustrator 24.0.1, SVG Export Plug-In . SVG Version: 6.00 Build 0)  -->
<svg version="1.1" id="Layer_1" xmlns="http://www.w3.org/2000/svg" xmlns:xlink="http://www.w3.org/1999/xlink" x="0px" y="0px"
	 viewBox="0 0 523 174" style="enable-background:new 0 0 523 174;" xml:space="preserve">
<style type="text/css">
	.st0{fill:#FFFFFF;}
</style>
<g>
	<polygon class="st0" points="94.9,27.2 94.9,120.8 11.1,126.9 11.1,156.5 94.9,156.5 163.1,156.5 163.1,115.8 163.1,11.8 	"/>
	<path class="st0" d="M305,27.4v129.1h37.9v-26.1l37.9,1.1v25h37.9V41.7L305,27.4z M342.9,92.9V70.3l37.9,3.7v21.6L342.9,92.9z"/>
	<path class="st0" d="M424.7,43.1v113.4H454v-22.9l29.3,1v21.9h25.9V53.8L424.7,43.1z M454,100.7V80.9l29.3,3.4v18.9L454,100.7z"/>
	<path class="st0" d="M280.8,90.8l17-1V27.3L173.6,11.8v144.7h124.3V95.2L280.8,90.8z M256.4,115.8l-41.4-1.6v-6.3l41.4,1.8V115.8z
		 M256.4,68.9L215,65.6v-6.3l41.4,3.6V68.9z"/>
</g>
</svg>
