<?xml version="1.0" encoding="utf-8"?>
<!-- Generator: Adobe Illustrator 24.0.0, SVG Export Plug-In . SVG Version: 6.00 Build 0)  -->
<svg version="1.1" id="Layer_1" xmlns="http://www.w3.org/2000/svg" xmlns:xlink="http://www.w3.org/1999/xlink" x="0px" y="0px"
	 viewBox="0 0 522 199" style="enable-background:new 0 0 522 199;" xml:space="preserve">
<style type="text/css">
	.st0{fill:url(#SVGID_1_);}
	.st1{fill:url(#SVGID_2_);}
	.st2{fill:url(#SVGID_3_);}
	.st3{fill:#8BC51F;}
</style>
<g>
	<g>
		<g>
			
				<radialGradient id="SVGID_1_" cx="72.5788" cy="53.1924" r="102.0475" gradientTransform="matrix(0.9928 0.1195 -0.1195 0.9928 15.4642 43.4152)" gradientUnits="userSpaceOnUse">
				<stop  offset="0" style="stop-color:#C2E76B"/>
				<stop  offset="1" style="stop-color:#80BC00"/>
			</radialGradient>
			<path class="st0" d="M100.37,149.17c-24.03,5.81-45.9-33.04-35.75-70.71c-28.24,56.13-5.35,106.32,23.37,103.66
				c23.9-2.22,38.61-35.69,32.04-70.87C120.03,111.25,122.12,143.92,100.37,149.17z"/>
		</g>
		<g>
			
				<radialGradient id="SVGID_2_" cx="62.1081" cy="83.5463" r="102.048" gradientTransform="matrix(0.9848 0.1736 -0.1736 0.9848 38.2456 9.6443)" gradientUnits="userSpaceOnUse">
				<stop  offset="0" style="stop-color:#C2E76B"/>
				<stop  offset="1" style="stop-color:#80BC00"/>
			</radialGradient>
			<path class="st1" d="M125.86,46.07c18.74,16.13-0.05,56.56-36.58,70.28c62.08-9.79,89.5-57.66,70.57-79.45
				c-15.73-18.11-51.5-10.53-76.25,15.33C83.6,52.22,108.92,31.46,125.86,46.07z"/>
		</g>
		<g>
			
				<radialGradient id="SVGID_3_" cx="64.1553" cy="89.547" r="102.0453" gradientTransform="matrix(0.9811 0.1935 -0.1935 0.9811 43.1167 2.0475)" gradientUnits="userSpaceOnUse">
				<stop  offset="0" style="stop-color:#C2E76B"/>
				<stop  offset="1" style="stop-color:#80BC00"/>
			</radialGradient>
			<path class="st2" d="M31.14,77.66c9.53-22.82,53.79-17.49,78.15,12.99C80.74,34.66,26.73,23.44,11.89,48.2
				c-12.34,20.57,5.95,52.24,38.21,67.74C50.09,115.93,22.52,98.3,31.14,77.66z"/>
		</g>
	</g>
	<g>
		<path class="st3" d="M186.83,111.46c-0.16,1.48-0.23,2.55-0.23,3.18c0,3,0.79,5.43,2.39,7.25c1.01,1.17,2.34,2.11,4.02,2.83
			c1.56,0.68,3.4,1.01,5.51,1.01c6.55,0,13.86-2.76,21.89-8.27c1.16-0.8,2.3-1.2,3.42-1.2c1,0,1.74,0.29,2.22,0.85
			c0.33,0.51,0.48,1.14,0.48,1.85c0,1.13-0.43,2.14-1.32,3.05c-3.72,3.97-8.83,7.17-15.35,9.61c-6.64,2.48-13.24,3.72-19.79,3.72
			c-8.11,0-14.45-1.93-19.01-5.82c-3.55-3.04-5.33-7.3-5.33-12.78c0-1.92,0.12-3.51,0.36-4.79c1.36-7.24,4.53-13.68,9.53-19.32
			c5-5.63,11.11-10.16,18.34-13.61c7.52-3.61,14.9-5.39,22.12-5.39c6.33,0,11.53,1.32,15.6,3.95c3.12,2.04,4.68,4.71,4.68,7.97
			c0,1.04-0.08,1.94-0.25,2.7C233.64,100.21,217.21,107.95,186.83,111.46z M188.92,102.88c11.04-1,19.23-3.69,24.59-8.09
			c2.36-1.92,3.84-4.1,4.43-6.54c0.16-0.64,0.25-1.18,0.25-1.62c0-3.29-2-4.93-6-4.93c-2.56,0-5.4,1.05-8.51,3.12
			c-1.52,1-2.94,2.15-4.26,3.42c-1,0.91-2.5,2.48-4.49,4.68C192.64,95.74,190.64,99.05,188.92,102.88z"/>
		<path class="st3" d="M253.1,111.46c-0.16,1.48-0.24,2.55-0.24,3.18c0,3,0.79,5.43,2.4,7.25c1,1.17,2.35,2.11,4.02,2.83
			c1.56,0.68,3.39,1.01,5.51,1.01c6.56,0,13.85-2.76,21.89-8.27c1.16-0.8,2.3-1.2,3.42-1.2c1,0,1.73,0.29,2.22,0.85
			c0.32,0.51,0.48,1.14,0.48,1.85c0,1.13-0.44,2.14-1.32,3.05c-3.72,3.97-8.84,7.17-15.35,9.61c-6.64,2.48-13.23,3.72-19.79,3.72
			c-8.12,0-14.45-1.93-19.02-5.82c-3.55-3.04-5.33-7.3-5.33-12.78c0-1.92,0.12-3.51,0.36-4.79c1.35-7.24,4.54-13.68,9.53-19.32
			C246.89,87,253,82.47,260.24,79.02c7.52-3.61,14.9-5.39,22.14-5.39c6.32,0,11.51,1.32,15.59,3.95c3.12,2.04,4.68,4.71,4.68,7.97
			c0,1.04-0.09,1.94-0.25,2.7C299.92,100.21,283.49,107.95,253.1,111.46z M255.2,102.88c11.04-1,19.23-3.69,24.59-8.09
			c2.36-1.92,3.84-4.1,4.44-6.54c0.15-0.64,0.23-1.18,0.23-1.62c0-3.29-1.99-4.93-5.99-4.93c-2.56,0-5.4,1.05-8.52,3.12
			c-1.52,1-2.94,2.15-4.26,3.42c-1,0.91-2.49,2.48-4.49,4.68C258.92,95.74,256.92,99.05,255.2,102.88z"/>
		<path class="st3" d="M319.38,111.46c-0.17,1.48-0.24,2.55-0.24,3.18c0,3,0.8,5.43,2.4,7.25c1,1.17,2.34,2.11,4.02,2.83
			c1.56,0.68,3.41,1.01,5.52,1.01c6.55,0,13.85-2.76,21.89-8.27c1.16-0.8,2.29-1.2,3.41-1.2c1.01,0,1.75,0.29,2.23,0.85
			c0.31,0.51,0.47,1.14,0.47,1.85c0,1.13-0.43,2.14-1.31,3.05c-3.72,3.97-8.84,7.17-15.36,9.61c-6.64,2.48-13.24,3.72-19.79,3.72
			c-8.11,0-14.45-1.93-19-5.82c-3.56-3.04-5.34-7.3-5.34-12.78c0-1.92,0.13-3.51,0.36-4.79c1.36-7.24,4.53-13.68,9.53-19.32
			c5-5.63,11.12-10.16,18.35-13.61c7.51-3.61,14.89-5.39,22.13-5.39c6.32,0,11.51,1.32,15.59,3.95c3.12,2.04,4.68,4.71,4.68,7.97
			c0,1.04-0.08,1.94-0.23,2.7C366.2,100.21,349.77,107.95,319.38,111.46z M321.48,102.88c11.03-1,19.23-3.69,24.6-8.09
			c2.35-1.92,3.83-4.1,4.43-6.54c0.16-0.64,0.24-1.18,0.24-1.62c0-3.29-2.01-4.93-6.01-4.93c-2.56,0-5.39,1.05-8.51,3.12
			c-1.52,1-2.94,2.15-4.26,3.42c-1,0.91-2.5,2.48-4.5,4.68C325.2,95.74,323.2,99.05,321.48,102.88z"/>
		<path class="st3" d="M379.26,93.3c0.43-1.12,0.66-2.18,0.66-3.19c0-0.59-0.09-0.97-0.24-1.14c-0.04-0.03-1-0.61-2.88-1.73
			c-1.2-0.72-1.8-1.57-1.8-2.52v-0.24c8.62-7.24,17.39-10.86,26.26-10.86c1.84,0,2.76,1.2,2.76,3.59c0,0.88-0.14,1.89-0.43,3.05
			c-0.48,1.99-0.76,3.3-0.84,3.9c-0.2,0.72-0.75,2.16-1.63,4.32l-9.33,22.74l-1.81,5.04c-0.28,1.16-0.41,2.13-0.41,2.94
			c0,3.87,1.85,5.71,5.57,5.51c5.44-0.28,10.64-3.11,15.59-8.46c4.76-5.15,8.11-10.9,10.07-17.21c0.23-1.12,0.36-2.09,0.36-2.94
			c0-0.64-0.12-1.22-0.36-1.74c-0.32-1.04-1.18-2.18-2.58-3.42l-2.57-2.94c-0.32-0.36-0.49-1.1-0.49-2.21
			c0-0.64,0.05-1.19,0.12-1.62l0.6-1.2c0.72-2.52,2.03-4.68,3.96-6.48c2.08-1.92,4.35-2.87,6.83-2.87c2.8,0,4.95,1.36,6.41,4.07
			c0.64,1.48,0.97,3.28,0.97,5.41c0,2.07-0.25,4.29-0.72,6.65c-1.65,7.79-4.84,15.17-9.57,22.12c-4.74,6.96-10.43,12.6-17.07,16.91
			c-6.95,4.53-14.21,6.78-21.77,6.78c-6.22,0-10.81-1.64-13.72-4.92c-1.76-2-2.64-4.42-2.64-7.26c0-1.92,0.43-3.99,1.27-6.18
			L379.26,93.3z"/>
		<path class="st3" d="M433.9,108.64c1.24-6.35,4.37-12.33,9.35-17.93c4.56-5.04,10-9.1,16.32-12.17
			c6.76-3.28,13.87-4.92,21.35-4.92c9.08,0,16.17,2.37,21.3,7.13c3.74,3.49,5.62,8.13,5.62,13.92c0,4.83-0.94,9.41-2.81,13.74
			c-0.89,1.91-2.15,4.03-3.78,6.35c-2.96,4.16-6.59,7.74-10.86,10.73c-9.52,6.72-19.51,10.07-29.99,10.07
			c-8.8,0-15.88-2.34-21.23-7.01c-3.92-3.4-5.88-8-5.88-13.79C433.31,112.73,433.5,110.68,433.9,108.64z M454.3,112.16
			c-0.39,1.73-0.59,3.55-0.59,5.47c0,2.4,0.48,4.28,1.43,5.65c1.64,2.35,4.27,3.54,7.86,3.54c4.68,0,9.36-2.82,14.04-8.47
			c4.8-5.8,8.15-12.99,10.07-21.55c0.4-1.8,0.6-3.52,0.6-5.16c0-2.28-0.5-4.17-1.49-5.65c-1.36-2.52-3.79-3.78-7.33-3.78
			c-5.91,0-11.35,3.65-16.31,10.92C458.66,98.89,455.89,105.24,454.3,112.16z"/>
	</g>
</g>
</svg>
