<?xml version="1.0" encoding="utf-8"?>
<!-- Generator: Adobe Illustrator 24.0.1, SVG Export Plug-In . SVG Version: 6.00 Build 0)  -->
<svg version="1.1" id="Layer_1" xmlns="http://www.w3.org/2000/svg" xmlns:xlink="http://www.w3.org/1999/xlink" x="0px" y="0px"
	 viewBox="0 0 498 109" style="enable-background:new 0 0 498 109;" xml:space="preserve">
<style type="text/css">
	.st0{fill:#313282;}
	.st1{fill:#FCEE38;}
	.st2{fill:url(#SVGID_1_);}
	.st3{fill:url(#SVGID_2_);}
</style>
<g>
	<g>
		<rect x="232.8" y="68.1" class="st0" width="30.5" height="12.7"/>
		<rect x="449.5" y="13.9" class="st1" width="19.2" height="16.5"/>
		<path class="st0" d="M292,32.9v7.8h0.2c1.8-4.8,7.4-9.5,13.4-9.5c9.1,0,17.1,4.5,17.1,12.9v50.8h-19.2V50.6
			c-0.2-2.9-1.5-5.3-5.1-5.1c-3.4,0.1-5.2,1.9-5.2,5.1v44.3h-19.2v-62H292z"/>
		<path class="st0" d="M365.7,88.7c-4.8,4.7-8.9,6-16.5,6c-10.9,0-17.6-6.5-17.6-16.1c0-13.6,8.3-17.9,16.8-20.4
			c8.3-2.5,16.7-3.2,16.7-9.6c0-3.3-2.2-6.2-6-6.2c-7,0-7,4.3-7.4,9.3h-19.2c-0.8-15,10.5-20.7,26-20.7c19,0,25.8,5.1,25.8,18.3
			v36.8c0,2.2,0.7,6.3,1.6,8.4H367L365.7,88.7z M364.9,63.7c-3.9,1.8-7.2,2.8-9.7,4.4c-2.4,1.5-4.5,3.6-4.5,7.7
			c0,3.8,2.5,6.4,7.1,6.4c5.7,0,6.9-5.2,7-9.1L364.9,63.7L364.9,63.7z"/>
		<path class="st0" d="M415.8,72.9h0.2l6.9-40.1h18.7l-14.9,62h-22l-14.7-62h19.3L415.8,72.9z"/>
		<path class="st0" d="M449.8,94.6V32.8H469v61.8L449.8,94.6L449.8,94.6z"/>
		<g>
			<path class="st0" d="M138.6,94.5V13.7h31.5l11.6,47.7h0.2l11.9-47.7h31.3v80.8h-21.4l2.3-63.4h-0.2l-15.8,63.4h-16.6l-15.4-63.4
				h-0.2l2,63.4H138.6z"/>
		</g>
	</g>
	<g>
		
			<linearGradient id="SVGID_1_" gradientUnits="userSpaceOnUse" x1="18" y1="24.8578" x2="79.17" y2="24.8578" gradientTransform="matrix(1 0 0 -1 0 78)">
			<stop  offset="0.1337" style="stop-color:#AA292E"/>
			<stop  offset="0.4064" style="stop-color:#ED3035"/>
			<stop  offset="0.5722" style="stop-color:#F05539"/>
		</linearGradient>
		<path class="st2" d="M18,90.8c0,0,20.8-93.4,61.2-44.9C79.2,45.8,27.1-46.4,18,90.8z"/>
		
			<linearGradient id="SVGID_2_" gradientUnits="userSpaceOnUse" x1="67.91" y1="16.7478" x2="129.08" y2="16.7478" gradientTransform="matrix(1 0 0 -1 0 78)">
			<stop  offset="0.1337" style="stop-color:#AA292E"/>
			<stop  offset="0.4064" style="stop-color:#ED3035"/>
			<stop  offset="0.5722" style="stop-color:#F05539"/>
		</linearGradient>
		<path class="st3" d="M67.9,98.9c0,0,20.8-93.4,61.2-44.9C129.1,53.9,77-38.2,67.9,98.9z"/>
	</g>
</g>
</svg>
