<?xml version="1.0" encoding="utf-8"?>
<!-- Generator: Adobe Illustrator 24.0.1, SVG Export Plug-In . SVG Version: 6.00 Build 0)  -->
<svg version="1.1" id="レイヤー_1" xmlns="http://www.w3.org/2000/svg" xmlns:xlink="http://www.w3.org/1999/xlink" x="0px"
	 y="0px" viewBox="0 0 1080 213" style="enable-background:new 0 0 1080 213;" xml:space="preserve">
<style type="text/css">
	.st0{fill:#FFFFFF;}
</style>
<g>
	<path class="st0" d="M37.1,51.5c0-4.7,1.7-8.7,5-12c3.3-3.3,7.3-5,12-5s8.7,1.7,12,5c3.3,3.3,5,7.3,5,12v81.9
		c0,4.5,1.6,8.4,4.9,11.7c3.3,3.3,7.2,4.9,11.9,4.9c4.5,0,8.4-1.6,11.7-4.8c3.3-3.2,4.9-7.1,4.9-11.8V51.7c0-4.7,1.7-8.7,5.1-12.1
		c3.4-3.4,7.4-5.1,12.1-5.1s8.7,1.7,12,5c3.3,3.3,5,7.3,5,12v81.9c0,4.7,1.6,8.6,4.8,11.8c3.2,3.2,7.1,4.8,11.8,4.8
		c4.7,0,8.6-1.6,11.9-4.9c3.3-3.3,4.9-7.2,4.9-11.7V51.7c0-4.7,1.7-8.7,5-12c3.3-3.3,7.4-5,12-5s8.7,1.7,12.1,5
		c3.4,3.3,5.1,7.3,5.1,12v81.7c0,14-5,26-14.9,35.9c-9.9,9.9-21.9,14.8-36,14.8c-12.8,0-24.1-4.3-33.7-12.9
		c-9.8,8.6-21.1,12.9-33.9,12.9c-14,0-26-4.9-36.1-14.8c-10-9.9-15-21.8-15-35.9L37.1,51.5L37.1,51.5z"/>
	<path class="st0" d="M318.3,167.1c0,4.7-1.7,8.7-5,12c-3.3,3.3-7.4,5-12,5h-33.9c-13.9,0-25.9-5-35.9-14.9c-10-9.9-15-21.9-15-36
		s5-26,14.9-35.9c10-9.9,21.9-14.8,35.8-14.8c14,0,26.1,4.9,36.1,14.8c10,9.9,15,21.8,15,35.9L318.3,167.1L318.3,167.1z
		 M284.2,133.2c0-4.6-1.6-8.5-4.9-11.7c-3.3-3.3-7.3-4.9-11.9-4.9c-4.7,0-8.6,1.6-11.9,4.9c-3.3,3.3-4.9,7.2-4.9,11.7
		c0,4.7,1.6,8.6,4.9,11.9c3.3,3.3,7.2,4.9,11.7,4.9H284L284.2,133.2z"/>
	<path class="st0" d="M429,166.9c0,4.7-1.7,8.7-5,12c-3.3,3.4-7.4,5-12,5c-5.9,0-10.6-2.5-14-7.4l-18.2-26h-17.4v16.6
		c0,4.7-1.7,8.7-5,12c-3.3,3.3-7.3,5-12,5c-4.7,0-8.7-1.7-12-5c-3.3-3.4-5-7.4-5-12l13.7-101.8c0-4.7,1.7-8.7,5-12
		c3.3-3.3,7.3-5,12-5s8.7,1.7,12,5c3.3,3.3,5,7.3,5,12l-8.2,51.1H378c7.1,0,11.9-3,14.4-8.8c1.6-5.3,3.3-10.7,5-16
		c2.5-5.9,7.3-8.8,14.4-8.8c4.7,0,8.7,1.7,12,5c3.3,3.3,5,7.3,5,12c0,15-5.6,27.5-16.8,37.7l13.8,19.6
		C427.9,159.9,429,163.1,429,166.9z"/>
	<path class="st0" d="M540.4,133.2c0,14-5,26-14.9,36c-10,9.9-21.9,14.9-36,14.9s-26-5-36-14.9c-10-9.9-14.9-21.9-14.9-36V99.3
		c0-4.7,1.7-8.7,5-12c3.3-3.3,7.4-5,12-5c4.7,0,8.7,1.7,12,5c3.4,3.3,5,7.3,5,12v33.9c0,4.5,1.7,8.5,5,11.8c3.3,3.4,7.3,5,11.8,5
		c4.5,0,8.4-1.6,11.7-4.9c3.3-3.3,4.9-7.2,4.9-11.9V99.5c0-4.7,1.7-8.7,5-12c3.3-3.3,7.3-5,12-5c4.7,0,8.7,1.7,12.1,5
		c3.4,3.3,5.1,7.3,5.1,12V133.2z"/>
	<path class="st0" d="M550,51.5c0-4.7,1.7-8.7,5-12c3.3-3.3,7.3-5,12-5c4.7,0,8.7,1.7,12,5c3.3,3.3,5,7.3,5,12v81.9
		c0,4.5,1.6,8.4,4.9,11.7c3.3,3.3,7.3,4.9,11.9,4.9c4.5,0,8.5-1.6,11.7-4.8c3.3-3.2,4.9-7.1,4.9-11.8V51.7c0-4.7,1.7-8.7,5.1-12.1
		c3.4-3.4,7.5-5.1,12.1-5.1s8.7,1.7,12,5c3.3,3.3,5,7.3,5,12v81.9c0,4.7,1.6,8.6,4.8,11.8c3.2,3.2,7.2,4.8,11.8,4.8
		s8.6-1.6,11.9-4.9c3.3-3.3,4.9-7.2,4.9-11.7V51.7c0-4.7,1.7-8.7,5-12c3.3-3.3,7.3-5,12-5c4.7,0,8.7,1.7,12.1,5
		c3.4,3.3,5.1,7.3,5.1,12v81.7c0,14-5,26-14.9,35.9s-21.9,14.8-36,14.8c-12.8,0-24-4.3-33.7-12.9c-9.7,8.6-21,12.9-33.9,12.9
		c-14,0-26.1-4.9-36.1-14.8c-10-9.9-15-21.8-15-35.9L550,51.5L550,51.5z"/>
	<path class="st0" d="M831.2,167.1c0,4.7-1.7,8.7-5,12c-3.3,3.3-7.3,5-12,5h-33.9c-13.9,0-25.8-5-35.9-14.9c-10-9.9-15-21.9-15-36
		s5-26,14.9-35.9c10-9.9,21.9-14.8,35.8-14.8c14,0,26,4.9,36.1,14.8s15,21.8,15,35.9V167.1z M797.1,133.2c0-4.6-1.6-8.5-4.9-11.7
		c-3.3-3.3-7.2-4.9-11.9-4.9c-4.7,0-8.7,1.6-11.9,4.9c-3.3,3.3-4.9,7.2-4.9,11.7c0,4.7,1.6,8.6,4.9,11.9c3.3,3.3,7.2,4.9,11.7,4.9
		h16.8L797.1,133.2z"/>
	<path class="st0" d="M941.8,166.9c0,4.7-1.7,8.7-5,12c-3.3,3.4-7.3,5-12,5c-5.9,0-10.5-2.5-14-7.4l-18.2-26h-17.4v16.6
		c0,4.7-1.7,8.7-5,12c-3.3,3.3-7.3,5-12,5c-4.7,0-8.7-1.7-12-5c-3.3-3.4-5-7.4-5-12l13.8-101.8c0-4.7,1.7-8.7,5-12
		c3.3-3.3,7.3-5,12-5c4.7,0,8.7,1.7,12,5c3.3,3.3,5,7.3,5,12l-6.9,51.1h9c7.1,0,11.9-3,14.4-8.8c1.6-5.3,3.3-10.7,5-16
		c2.5-5.9,7.3-8.8,14.4-8.8c4.7,0,8.7,1.7,12,5c3.3,3.3,5,7.3,5,12c0,15-5.6,27.5-16.8,37.7l13.8,19.6
		C940.8,159.9,941.8,163.1,941.8,166.9z"/>
	<path class="st0" d="M1053.2,133.2c0,14-5,26-14.9,36c-10,9.9-22,14.9-36,14.9c-14,0-26-5-36-14.9c-10-9.9-14.9-21.9-14.9-36V99.3
		c0-4.7,1.7-8.7,5-12c3.3-3.3,7.3-5,12-5c4.7,0,8.7,1.7,12,5c3.3,3.3,5,7.3,5,12v33.9c0,4.5,1.7,8.5,5,11.8c3.3,3.4,7.3,5,11.8,5
		s8.5-1.6,11.7-4.9c3.3-3.3,4.9-7.2,4.9-11.9V99.5c0-4.7,1.7-8.7,5-12c3.3-3.3,7.3-5,12-5c4.7,0,8.7,1.7,12.1,5
		c3.4,3.3,5.1,7.3,5.1,12V133.2z"/>
</g>
</svg>
