<?xml version="1.0" encoding="utf-8"?>
<!-- Generator: Adobe Illustrator 24.0.0, SVG Export Plug-In . SVG Version: 6.00 Build 0)  -->
<svg version="1.1" id="レイヤー_1" xmlns="http://www.w3.org/2000/svg" xmlns:xlink="http://www.w3.org/1999/xlink" x="0px"
	 y="0px" viewBox="0 0 1080 212.96" style="enable-background:new 0 0 1080 212.96;" xml:space="preserve">
<style type="text/css">
	.st0{fill:#BF3332;}
</style>
<g>
	<path class="st0" d="M37.13,51.5c0-4.68,1.67-8.68,5.01-12.01c3.34-3.35,7.35-5.02,12.03-5.02s8.69,1.66,12.03,5.02
		c3.33,3.33,5,7.33,5,12.01v81.9c0,4.53,1.64,8.44,4.91,11.72c3.28,3.28,7.25,4.91,11.93,4.91c4.53,0,8.44-1.6,11.72-4.8
		c3.27-3.21,4.9-7.15,4.9-11.83V51.71c0-4.68,1.71-8.73,5.11-12.13c3.41-3.41,7.45-5.11,12.13-5.11s8.69,1.66,12.03,5.02
		c3.34,3.33,5.01,7.33,5.01,12.01v81.9c0,4.68,1.6,8.62,4.81,11.83c3.2,3.21,7.15,4.8,11.82,4.8c4.68,0,8.65-1.63,11.93-4.91
		c3.27-3.28,4.92-7.19,4.92-11.72V51.71c0-4.68,1.66-8.69,5.01-12.03c3.33-3.35,7.35-5.02,12.03-5.02s8.71,1.66,12.12,5.02
		c3.41,3.33,5.11,7.35,5.11,12.03v81.69c0,14.03-4.97,25.99-14.93,35.88c-9.95,9.89-21.94,14.84-35.98,14.84
		c-12.83,0-24.05-4.3-33.66-12.85c-9.76,8.55-21.05,12.85-33.88,12.85c-14.02,0-26.05-4.95-36.07-14.84
		c-10.03-9.89-15.04-21.84-15.04-35.88V51.5z"/>
	<path class="st0" d="M318.32,167.07c0,4.68-1.67,8.68-5.01,12.03c-3.34,3.34-7.35,5.02-12.03,5.02h-33.86
		c-13.9,0-25.85-5-35.88-14.94c-10.02-9.95-15.03-21.93-15.03-35.97s4.97-25.99,14.93-35.88c9.96-9.89,21.88-14.84,35.77-14.84
		c14.03,0,26.06,4.95,36.09,14.84c10.02,9.89,15.03,21.85,15.03,35.88V167.07z M284.25,133.2c0-4.55-1.64-8.46-4.91-11.72
		c-3.27-3.28-7.26-4.91-11.93-4.91c-4.68,0-8.65,1.63-11.93,4.91c-3.27,3.26-4.91,7.17-4.91,11.72c0,4.68,1.64,8.63,4.91,11.92
		c3.28,3.28,7.19,4.91,11.72,4.91h16.84L284.25,133.2z"/>
	<path class="st0" d="M428.95,166.87c0,4.66-1.68,8.68-5.01,12.01c-3.34,3.35-7.36,5.02-12.02,5.02c-5.89,0-10.56-2.47-14.03-7.42
		l-18.24-26.04h-17.44v16.63c0,4.68-1.66,8.68-5.02,12.03c-3.32,3.34-7.34,5.02-12.02,5.02c-4.69,0-8.69-1.68-12.03-5.02
		c-3.34-3.35-5.01-7.35-5.01-12.03l13.74-101.81c0-4.68,1.67-8.69,5.02-12.03c3.33-3.35,7.34-5.02,12.02-5.02
		c4.68,0,8.69,1.66,12.02,5.02c3.34,3.33,5.01,7.35,5.01,12.03l-8.24,51.11h10.33c7.08,0,11.89-2.96,14.43-8.84
		c1.61-5.34,3.28-10.68,5.02-16.02c2.54-5.9,7.34-8.84,14.43-8.84c4.67,0,8.68,1.69,12.02,5.02c3.33,3.35,5.01,7.35,5.01,12.03
		c0,14.98-5.61,27.52-16.84,37.69l13.83,19.64C427.94,159.85,428.95,163.12,428.95,166.87z"/>
	<path class="st0" d="M540.38,133.2c0,14.03-4.98,26.02-14.94,35.97c-9.96,9.94-21.94,14.94-35.97,14.94
		c-14.03,0-26.02-5-35.98-14.94c-9.96-9.95-14.94-21.93-14.94-35.97V99.33c0-4.68,1.67-8.69,5.02-12.03
		c3.34-3.35,7.35-5.02,12.03-5.02c4.67,0,8.68,1.66,12.02,5.02c3.35,3.33,5.01,7.35,5.01,12.03v33.87c0,4.53,1.67,8.47,5.01,11.81
		c3.33,3.35,7.27,5.02,11.83,5.02c4.54,0,8.44-1.63,11.72-4.91c3.27-3.28,4.91-7.24,4.91-11.92V99.52c0-4.68,1.66-8.68,5.01-12.03
		c3.35-3.34,7.35-5.02,12.03-5.02c4.68,0,8.72,1.68,12.13,5.02c3.4,3.35,5.11,7.35,5.11,12.03V133.2z"/>
	<path class="st0" d="M550.01,51.5c0-4.68,1.66-8.68,5.01-12.01c3.33-3.35,7.34-5.02,12.03-5.02c4.68,0,8.68,1.66,12.01,5.02
		c3.34,3.33,5.02,7.33,5.02,12.01v81.9c0,4.53,1.63,8.44,4.9,11.72c3.28,3.28,7.26,4.91,11.93,4.91c4.55,0,8.46-1.6,11.73-4.8
		c3.27-3.21,4.91-7.15,4.91-11.83V51.71c0-4.68,1.7-8.73,5.11-12.13c3.41-3.41,7.45-5.11,12.13-5.11c4.68,0,8.69,1.66,12.02,5.02
		c3.34,3.33,5.01,7.33,5.01,12.01v81.9c0,4.68,1.61,8.62,4.81,11.83c3.21,3.21,7.15,4.8,11.83,4.8c4.68,0,8.64-1.63,11.92-4.91
		c3.28-3.28,4.92-7.19,4.92-11.72V51.71c0-4.68,1.67-8.69,5.01-12.03c3.34-3.35,7.35-5.02,12.01-5.02c4.69,0,8.72,1.66,12.13,5.02
		c3.41,3.33,5.11,7.35,5.11,12.03v81.69c0,14.03-4.97,25.99-14.93,35.88c-9.96,9.89-21.94,14.84-35.98,14.84
		c-12.83,0-24.05-4.3-33.68-12.85c-9.74,8.55-21.04,12.85-33.86,12.85c-14.03,0-26.06-4.95-36.07-14.84
		c-10.02-9.89-15.03-21.84-15.03-35.88V51.5z"/>
	<path class="st0" d="M831.17,167.07c0,4.68-1.67,8.68-5.01,12.03c-3.34,3.34-7.34,5.02-12.02,5.02h-33.86
		c-13.9,0-25.85-5-35.88-14.94c-10.02-9.95-15.03-21.93-15.03-35.97s4.97-25.99,14.93-35.88c9.95-9.89,21.87-14.84,35.78-14.84
		c14.03,0,26.04,4.95,36.06,14.84c10.02,9.89,15.03,21.85,15.03,35.88V167.07z M797.11,133.2c0-4.55-1.64-8.46-4.92-11.72
		c-3.27-3.28-7.25-4.91-11.92-4.91c-4.69,0-8.66,1.63-11.93,4.91c-3.28,3.26-4.91,7.17-4.91,11.72c0,4.68,1.64,8.63,4.91,11.92
		c3.27,3.28,7.18,4.91,11.73,4.91h16.83L797.11,133.2z"/>
	<path class="st0" d="M941.81,166.87c0,4.66-1.68,8.68-5.01,12.01c-3.34,3.35-7.35,5.02-12.03,5.02c-5.87,0-10.55-2.47-14.03-7.42
		l-18.24-26.04h-17.44v16.63c0,4.68-1.68,8.68-5.01,12.03c-3.34,3.34-7.35,5.02-12.02,5.02c-4.69,0-8.69-1.68-12.03-5.02
		c-3.34-3.35-5-7.35-5-12.03l13.75-101.81c0-4.68,1.66-8.69,5.01-12.03c3.33-3.35,7.34-5.02,12.02-5.02c4.67,0,8.68,1.66,12.02,5.02
		c3.33,3.33,5.02,7.35,5.02,12.03l-6.88,51.11h8.96c7.08,0,11.89-2.96,14.43-8.84c1.59-5.34,3.27-10.68,5.01-16.02
		c2.54-5.9,7.34-8.84,14.42-8.84c4.69,0,8.69,1.69,12.03,5.02c3.33,3.35,5.01,7.35,5.01,12.03c0,14.98-5.61,27.52-16.83,37.69
		l13.82,19.64C940.8,159.85,941.81,163.12,941.81,166.87z"/>
	<path class="st0" d="M1053.25,133.2c0,14.03-4.98,26.02-14.93,35.97c-9.97,9.94-21.95,14.94-35.99,14.94
		c-14.03,0-26.02-5-35.96-14.94c-9.96-9.95-14.94-21.93-14.94-35.97V99.33c0-4.68,1.68-8.69,5.01-12.03
		c3.35-3.35,7.35-5.02,12.03-5.02c4.68,0,8.68,1.66,12.03,5.02c3.33,3.33,5.01,7.35,5.01,12.03v33.87c0,4.53,1.67,8.47,5.01,11.81
		c3.34,3.35,7.28,5.02,11.82,5.02c4.54,0,8.45-1.63,11.73-4.91c3.27-3.28,4.91-7.24,4.91-11.92V99.52c0-4.68,1.68-8.68,5.02-12.03
		c3.33-3.34,7.33-5.02,12.02-5.02c4.67,0,8.71,1.68,12.12,5.02c3.41,3.35,5.11,7.35,5.11,12.03V133.2z"/>
</g>
</svg>
